# AST/ASF file generated using VICON BodyLanguage
# -----------------------------------------------
:version 1.10
:name VICON
:units
  mass 1.0
  length 0.45
  angle deg
:documentation
   .ast/.asf automatically generated from VICON data using
   VICON BodyBuilder and BodyLanguage model FoxedUp or BRILLIANT.MOD
:root
   order TX TY TZ RX RY RZ
   axis XYZ
   position 0 0 0  
   orientation 0 0 0 
:bonedata
  begin
     id 1 
     name lhipjoint
     direction 0.662698 -0.695252 0.27831 
     length 2.53073 
     axis 0 0 0  XYZ
  end
  begin
     id 2 
     name lfemur
     direction 0.34202 -0.939693 0  
     length 7.16147  
     axis 0 0 20  XYZ
    dof rx ry rz
    limits (-160.0 20.0)
           (-70.0 70.0)
           (-60.0 70.0)
  end
  begin
     id 3 
     name ltibia
     direction 0.34202 -0.939693 0   
     length 7.63967   
     axis 0 0 20   XYZ
    dof rx
    limits (-10.0 170.0)
  end
  begin
     id 4 
     name lfoot
     direction 0.0938457 -0.257721 0.961651   
     length 1.89793   
     axis -90 7.62852e-016 20   XYZ
    dof rx rz
    limits (-45.0 90.0)
           (-70.0 20.0)
  end
  begin
     id 5 
     name ltoes
     direction -0.00116841 -0.0030592 0.999995   
     length 0.955649   
     axis -90 7.62852e-016 20   XYZ
    dof rx
    limits (-90.0 20.0)
  end
  begin
     id 6 
     name rhipjoint
     direction -0.649445 -0.705948 0.282592   
     length 2.49238  
     axis 0 0 0  XYZ 
  end
  begin
     id 7 
     name rfemur
     direction -0.34202 -0.939693 0   
     length 6.90728   
     axis 0 0 -20   XYZ
    dof rx ry rz
    limits (-160.0 20.0)
           (-70.0 70.0)
           (-70.0 60.0)
  end
  begin
     id 8 
     name rtibia
     direction -0.34202 -0.939693 0   
     length 7.72868   
     axis 0 0 -20   XYZ
    dof rx
    limits (-10.0 170.0)
 end
 begin
     id 9 
     name rfoot
     direction -0.0920068 -0.252865 0.963117   
     length 1.97476  
     axis -90 -7.62852e-016 -20   XYZ
    dof rx rz
    limits (-45.0 90.0)
           (-20.0 70.0)
  end
  begin
     id 10 
     name rtoes
     direction 0.000391322 0.00230649 0.999997   
     length 0.992641   
     axis -90 -7.62852e-016 -20   XYZ
    dof rx
    limits (-90.0 20.0)
  end
  begin
     id 11 
     name lowerback
     direction -0.00875327 0.998321 -0.0572635   
     length 2.20024   
     axis 0 0 0   XYZ
    dof rx ry rz
    limits (-20.0 45.0)
           (-30.0 30.0)
           (-30.0 30.0)
  end
  begin
     id 12 
     name upperback
     direction 0.00753931 0.999972 -0.000360425   
     length 2.20538   
     axis 0 0 0   XYZ
    dof rx ry rz
    limits (-20.0 45.0)
           (-30.0 30.0)
           (-30.0 30.0)
  end
  begin
     id 13 
     name thorax
     direction 0.0117767 0.999601 0.0256663   
     length 2.21508   
     axis 0 0 0   XYZ
    dof rx ry rz
    limits (-20.0 45.0)
           (-30.0 30.0)
           (-30.0 30.0)
  end
  begin
     id 14 
     name lowerneck
     direction 0.060228 0.994909 0.0807986   
     length 1.7607   
     axis 0 0 0   XYZ
    dof rx ry rz
    limits (-20.0 45.0)
           (-30.0 30.0)
           (-30.0 30.0)
  end
  begin
     id 15 
     name upperneck
     direction -0.0563647 0.959594 -0.275685   
     length 1.75612   
     axis 0 0 0   XYZ
    dof rx ry rz
    limits (-20.0 45.0)
           (-30.0 30.0)
           (-30.0 30.0)
  end
  begin
     id 16
     name head
     direction -0.0161544 0.99458 -0.102714  
     length 1.79288  
     axis 0 0 0   XYZ
    dof rx ry rz
    limits (-20.0 45.0)
           (-30.0 30.0)
           (-30.0 30.0)
  end
  begin
     id 17 
     name lclavicle
     direction 0.93913 0.332189 -0.087669  
     length 3.52087  
     axis 0 0 0   XYZ
    dof ry rz
    limits (-20.0 10.0)
           (0.0 20.0)
  end
  begin
     id 18 
     name lhumerus
     direction 1 -4.48974e-011 -2.70836e-027   
     length 5.35289   
     axis -180 -30 -90   XYZ
    dof rx ry rz
    limits (-60.0 90.0)
           (-90.0 90.0)
           (-90.0 90.0)
  end
  begin
     id 19
     name lradius
     direction 1 -4.48961e-011 -9.76021e-027   
     length 3.27727   
     axis -180 -30 -90   XYZ
    dof rx
    limits (-10.0 170.0)
  end
  begin
     id 20
     name lwrist
     direction 1 -4.49103e-011 -2.23668e-026   
     length 1.63864   
     axis 1.44924e-014 90 90   XYZ
    dof ry
    limits (-180.0 0.0)
 end
  begin
     id 21 
     name lhand
     direction 1 3.0697e-005 0.000161777   
     length 0.54443   
     axis 2.85318e-014 90 90   XYZ
    dof rx rz
    limits (-90.0 90.0)
           (-45.0 45.0)
  end
  begin
     id 22 
     name lfingers
     direction 1 -4.49027e-011 -8.9447e-026   
     length 0.438912   
     axis 5.70628e-014 90 90   XYZ
    dof rx
    limits (0.0 90.0)
  end
  begin
     id 23
     name lthumb
     direction 0.707058 2.6516e-005 0.707156   
     length 0.630274   
     axis -90 45 -3.53137e-014   XYZ
    dof rx rz
    limits (-45.0 45.0)
           (-45.0 45.0)
  end
  begin
     id 24 
     name rclavicle
     direction -0.95274 0.284984 -0.105215   
     length 3.43401  
     axis 0 0 0   XYZ 
    dof ry rz
    limits (-10.0 20.0)
           (-20.0 0.0)
  end
  begin
     id 25 
     name rhumerus
     direction -0.999999 -0.000575019 -0.00106829  
     length 5.52077   
     axis -180 30 90   XYZ
    dof rx ry rz
    limits (-90.0 60.0)
           (-90.0 90.0)
           (-90.0 90.0)
  end
  begin
     id 26 
     name rradius
     direction -1 -4.4879e-011 -6.35415e-027   
     length 3.32364   
     axis -180 30 90   XYZ
    dof rx
    limits (-10.0 170.0)
  end
  begin
     id 27 
     name rwrist
     direction -1 -4.49048e-011 -9.98542e-027   
     length 1.66182   
     axis 6.32482e-015 -90 -90   XYZ
    dof ry
    limits (-180.0 0.0)
  end
  begin
     id 28
     name rhand
     direction -1 -4.48978e-011 -1.99771e-026   
     length 0.732235   
     axis 1.27479e-014 -90 -90   XYZ
    dof rx rz
    limits (-90.0 90.0)
           (-45.0 45.0)
  end
  begin
     id 29
     name rfingers
     direction -1 -4.49144e-011 -3.99245e-026   
     length 0.590347   
     axis 2.5496e-014 -90 -90   XYZ
    dof rx
    limits (0.0 90.0)
  end
  begin
     id 30
     name rthumb
     direction -0.707107 -6.35121e-011 0.707107   
     length 0.847624   
     axis -90 -45 -2.82974e-014   XYZ
    dof rx rz
    limits (-45.0 45.0)
           (-45.0 45.0)
  end
:hierarchy
  begin
    root lhipjoint rhipjoint lowerback
    lhipjoint lfemur
    lfemur ltibia
    ltibia lfoot
    lfoot ltoes
    rhipjoint rfemur
    rfemur rtibia
    rtibia rfoot
    rfoot rtoes
    lowerback upperback
    upperback thorax
    thorax lowerneck lclavicle rclavicle
    lowerneck upperneck
    upperneck head
    lclavicle lhumerus
    lhumerus lradius
    lradius lwrist
    lwrist lhand lthumb
    lhand lfingers
    rclavicle rhumerus
    rhumerus rradius
    rradius rwrist
    rwrist rhand rthumb
    rhand rfingers
  end

#!OML:ASF G:\Work\Work\Patient Classification 1\Elijah\terrain1\Elijah.ASF
:FULLY-SPECIFIED
:DEGREES
3985
root -2.77663 19.6409 -30.0701 3.38859 -43.0168 2.97123
lowerback 1.22277 -1.94257 7.05686
upperback 2.45628 -2.58809 -6.98011
thorax 1.24936 -1.16833 -11.4535
lowerneck -7.82997 22.0906 19.812
upperneck 22.3405 33.8377 -20.3418
head 16.6039 14.6715 -3.80926
rclavicle -6.20208e-014 -1.59028e-014
rhumerus -36.3783 -5.28858 -89.0671
rradius 30.9029
rwrist -0.660412
rhand -14.9871 24.8592
rfingers 7.12502
rthumb 11.1772 -4.82308
lclavicle -6.20208e-014 -1.59028e-014
lhumerus -39.8297 -3.48819 71.1218
lradius 59.3625
lwrist 0.225148
lhand -12.341 25.0623
lfingers 7.12502
lthumb 13.7284 54.5894
rfemur -39.3524 14.2355 10.1274
rtibia 61.0114
rfoot -20.0872 -9.51985
rtoes -14.9487
lfemur -11.6349 -10.6246 -35.9554
ltibia 34.2721
lfoot -14.1061 -12.5667
ltoes -11.7574
3986
root -2.83098 19.6375 -30.0046 3.51721 -42.4886 2.76952
lowerback 1.19597 -1.97001 7.37997
upperback 2.57148 -2.62662 -7.17156
thorax 1.35674 -1.17182 -11.8721
lowerneck -8.02371 22.0536 19.6682
upperneck 22.1582 33.6501 -20.1531
head 16.4182 14.6001 -3.76495
rclavicle 2.26615e-014 3.02153e-014
rhumerus -36.3561 -5.09333 -89.3623
rradius 30.5714
rwrist -0.358756
rhand -14.7467 25.0211
rfingers 7.12502
rthumb 11.409 -4.64852
lclavicle 2.26615e-014 3.02153e-014
lhumerus -40.0483 -3.06119 70.5301
lradius 59.8174
lwrist -0.00564748
lhand -12.8191 25.9257
lfingers 7.12502
lthumb 13.2676 55.4834
rfemur -39.8365 13.7921 10.9292
rtibia 59.9778
rfoot -18.6778 -8.19754
rtoes -12.0567
lfemur -11.1572 -10.9846 -35.8185
ltibia 34.032
lfoot -13.7012 -13.1323
ltoes -9.27586
3987
root -2.88374 19.6425 -29.9392 3.41705 -42.0608 2.84217
lowerback 1.24601 -1.98431 7.42356
upperback 2.64917 -2.64484 -7.35993
thorax 1.3966 -1.17487 -12.1143
lowerneck -8.13678 22.0252 19.5247
upperneck 22.0449 33.5197 -19.9938
head 16.2755 14.5515 -3.72308
rclavicle -8.34896e-015 -5.40694e-014
rhumerus -36.549 -4.62916 -89.6132
rradius 30.4174
rwrist -0.245106
rhand -14.673 24.9299
rfingers 7.12502
rthumb 11.4802 -4.73579
lclavicle -8.34896e-015 -5.40694e-014
lhumerus -40.2862 -2.57628 69.9979
lradius 60.1773
lwrist -0.216145
lhand -13.1333 26.2717
lfingers 7.12502
lthumb 12.9647 55.8489
rfemur -40.2552 13.5056 11.3666
rtibia 59.0243
rfoot -18.7486 -7.26555
rtoes -10.2961
lfemur -10.6642 -11.2757 -35.9152
ltibia 33.8615
lfoot -13.3321 -13.487
ltoes -7.32393
3988
root -2.93236 19.6498 -29.8687 3.31728 -41.3974 3.07207
lowerback 1.21727 -2.07303 7.39196
upperback 2.6793 -2.76783 -7.56911
thorax 1.40447 -1.23655 -12.3343
lowerneck -8.13763 21.9795 19.3473
upperneck 21.9928 33.3764 -19.7732
head 16.113 14.5078 -3.67417
rclavicle -3.53837e-014 -4.29375e-014
rhumerus -36.5131 -4.37416 -89.9251
rradius 29.9184
rwrist 0.299951
rhand -15.203 24.558
rfingers 7.12502
rthumb 10.969 -5.13548
lclavicle -3.53837e-014 -4.29375e-014
lhumerus -40.5781 -2.14586 69.5068
lradius 60.4581
lwrist -0.386503
lhand -13.0641 26.7097
lfingers 7.12502
lthumb 13.0314 56.2827
rfemur -40.6718 12.564 11.9592
rtibia 57.8633
rfoot -18.7704 -8.64526
rtoes -19.1406
lfemur -10.2172 -11.6452 -36.1672
ltibia 33.6611
lfoot -12.9865 -13.7041
ltoes -5.97849
3989
root -2.96952 19.6559 -29.796 3.49225 -40.6875 3.10545
lowerback 1.09262 -2.15031 7.70632
upperback 2.73221 -2.88068 -7.84925
thorax 1.47562 -1.28206 -12.8569
lowerneck -8.22384 21.8764 19.4163
upperneck 21.767 33.1175 -19.7355
head 15.9644 14.4189 -3.73958
rclavicle 1.19271e-014 4.13472e-014
rhumerus -36.0634 -4.73502 -90.2904
rradius 29.0475
rwrist 1.32541
rhand -15.7625 24.3704
rfingers 7.12502
rthumb 10.4293 -5.35091
lclavicle 1.19271e-014 4.13472e-014
lhumerus -40.6567 -1.92637 68.8978
lradius 60.6883
lwrist -0.469877
lhand -13.5177 26.6359
lfingers 7.12502
lthumb 12.5941 56.2363
rfemur -41.2458 11.6401 12.5756
rtibia 56.7391
rfoot -18.991 -8.57892
rtoes -22.9051
lfemur -9.93388 -12.2193 -36.303
ltibia 33.3896
lfoot -12.5194 -13.6667
ltoes -5.09398
3990
root -3.03175 19.6769 -29.7338 3.3136 -40.435 3.22405
lowerback 1.20884 -2.06909 7.58251
upperback 2.931 -2.76667 -8.17073
thorax 1.64396 -1.20693 -13.1601
lowerneck -8.72026 21.8954 19.5757
upperneck 21.7267 32.9636 -19.5191
head 15.9798 14.3459 -3.66843
rclavicle 3.02153e-014 -9.54166e-015
rhumerus -35.4821 -5.5791 -90.5437
rradius 28.2113
rwrist 2.42854
rhand -15.4804 24.3001
rfingers 7.12502
rthumb 10.7014 -5.40739
lclavicle 3.02153e-014 -9.54166e-015
lhumerus -40.5972 -1.84704 68.2147
lradius 61.0236
lwrist -0.490475
lhand -12.3006 27.9894
lfingers 7.12502
lthumb 13.7673 57.5139
rfemur -41.4014 11.3799 13.2446
rtibia 55.5435
rfoot -18.9345 -7.82617
rtoes -23.6224
lfemur -9.35114 -12.4272 -36.4656
ltibia 33.1007
lfoot -12.0743 -13.8006
ltoes -3.72381
3991
root -3.09667 19.6801 -29.6683 3.00421 -40.2599 3.43691
lowerback 1.34681 -1.97341 7.37973
upperback 3.13523 -2.63174 -8.48049
thorax 1.8164 -1.12204 -13.4024
lowerneck -9.3194 21.9933 19.5779
upperneck 21.9752 32.9286 -19.0671
head 16.0821 14.3069 -3.4506
rclavicle -6.52014e-014 3.33958e-014
rhumerus -35.0246 -6.2659 -90.7272
rradius 27.4949
rwrist 3.48347
rhand -15.0068 24.3354
rfingers 7.12502
rthumb 11.1582 -5.34792
lclavicle -6.52014e-014 3.33958e-014
lhumerus -40.5669 -1.90883 67.6223
lradius 61.3123
lwrist -0.338553
lhand -12.6581 27.469
lfingers 7.12502
lthumb 13.4228 57.0165
rfemur -41.5061 11.0885 13.9197
rtibia 54.4182
rfoot -18.7799 -7.22991
rtoes -24.6197
lfemur -8.74929 -11.879 -36.6413
ltibia 32.8621
lfoot -11.6946 -14.684
ltoes -1.78661
3992
root -3.12294 19.6827 -29.5727 3.37408 -38.936 3.51672
lowerback 0.7333 -2.23316 7.96823
upperback 3.16331 -3.01311 -8.72999
thorax 2.04984 -1.28659 -14.089
lowerneck -9.26825 21.9249 19.5448
upperneck 21.9325 32.7758 -18.9418
head 15.9738 14.2631 -3.45835
rclavicle 2.78299e-015 5.24792e-014
rhumerus -34.8141 -6.65418 -90.8158
rradius 26.8098
rwrist 4.50893
rhand -14.8821 24.6895
rfingers 7.12502
rthumb 11.2784 -4.98727
lclavicle 2.78299e-015 5.24792e-014
lhumerus -41.113 -1.36369 67.0237
lradius 61.9908
lwrist -0.621213
lhand -12.9919 27.0817
lfingers 7.12502
lthumb 13.101 56.6501
rfemur -42.0296 9.52722 14.5225
rtibia 53.2451
rfoot -18.7993 -6.58888
rtoes -25.5397
lfemur -8.58759 -12.5019 -36.7513
ltibia 32.5315
lfoot -11.1497 -15.2776
ltoes -0.400212
3993
root -3.14208 19.6965 -29.4714 3.82519 -37.2987 3.71114
lowerback -0.0640255 -2.59512 8.51508
upperback 3.04245 -3.5517 -8.89041
thorax 2.1745 -1.54684 -14.6552
lowerneck -8.57469 21.7051 19.4096
upperneck 21.611 32.4882 -18.9915
head 15.6036 14.2154 -3.6334
rclavicle 4.77083e-014 0
rhumerus -34.8746 -6.81285 -90.7438
rradius 26.2168
rwrist 5.27325
rhand -14.7419 24.8072
rfingers 7.12502
rthumb 11.4137 -4.86219
lclavicle 4.77083e-014 0
lhumerus -41.3815 -1.08329 66.6116
lradius 62.0889
lwrist 0.569528
lhand -13.3751 28.3367
lfingers 7.12502
lthumb 12.7316 57.9286
rfemur -42.6056 7.71403 14.9788
rtibia 52.0467
rfoot -18.8718 -5.67976
rtoes -25.6652
lfemur -8.57352 -13.5679 -36.9633
ltibia 32.3236
lfoot -10.6066 -15.5451
ltoes 0.338411
3994
root -3.23319 19.7157 -29.4139 3.23517 -37.8459 3.88912
lowerback 0.543633 -2.33321 7.77585
upperback 3.00823 -3.15932 -8.95687
thorax 1.94489 -1.38008 -14.2382
lowerneck -8.14516 21.5686 19.2861
upperneck 21.5153 32.2848 -18.8585
head 15.3662 14.1814 -3.68737
rclavicle 1.11717e-013 3.81667e-014
rhumerus -35.0103 -6.7849 -90.7631
rradius 25.7577
rwrist 5.70569
rhand -14.7416 24.3627
rfingers 7.12502
rthumb 11.414 -5.30666
lclavicle 1.11717e-013 3.81667e-014
lhumerus -41.4846 -1.1733 66.4028
lradius 61.7421
lwrist 1.62971
lhand -14.5463 28.3155
lfingers 7.12502
lthumb 11.6023 57.9743
rfemur -42.1831 8.28951 15.7928
rtibia 50.6632
rfoot -18.6505 -4.95185
rtoes -25.9414
lfemur -7.66585 -12.3707 -37.1506
ltibia 32.0951
lfoot -10.5439 -15.856
ltoes 0.89685
3995
root -3.28585 19.719 -29.3401 3.07434 -37.4615 3.96678
lowerback 0.839921 -2.34973 7.73703
upperback 3.02808 -3.17116 -9.13295
thorax 1.78769 -1.39683 -14.4081
lowerneck -8.36385 21.58 19.251
upperneck 21.7339 32.2196 -18.5344
head 15.4016 14.1515 -3.56626
rclavicle -5.96354e-015 -1.59028e-015
rhumerus -35.1057 -6.70907 -90.9961
rradius 25.567
rwrist 5.99652
rhand -14.778 24.0288
rfingers 7.12502
rthumb 11.3788 -5.64247
lclavicle -5.96354e-015 -1.59028e-015
lhumerus -41.577 -1.08123 65.9911
lradius 61.5318
lwrist 2.14284
lhand -15.3143 27.5615
lfingers 7.12502
lthumb 10.8616 57.2607
rfemur -42.0512 7.87475 16.5192
rtibia 49.2283
rfoot -18.4211 -4.21912
rtoes -26.3447
lfemur -7.14094 -11.6921 -37.211
ltibia 31.8423
lfoot -10.0542 -16.6355
ltoes 1.68414
3996
root -3.3008 19.7454 -29.2374 3.50909 -35.8235 4.07693
lowerback 0.29681 -2.71977 8.34624
upperback 3.06124 -3.70503 -9.37974
thorax 1.92159 -1.64708 -15.1114
lowerneck -8.68713 21.5698 19.1498
upperneck 21.9113 32.0821 -18.1462
head 15.3936 14.0891 -3.42722
rclavicle -4.29375e-014 -2.54444e-014
rhumerus -35.148 -6.60329 -91.3249
rradius 25.5547
rwrist 6.16817
rhand -14.7894 23.9083
rfingers 7.12502
rthumb 11.3679 -5.76357
lclavicle -4.29375e-014 -2.54444e-014
lhumerus -41.6678 -0.77068 65.4395
lradius 61.5986
lwrist 2.42832
lhand -14.4314 28.4884
lfingers 7.12502
lthumb 11.7131 58.1409
rfemur -42.3062 6.40391 16.8858
rtibia 47.6904
rfoot -18.1298 -3.55251
rtoes -26.6537
lfemur -6.97013 -12.7299 -37.354
ltibia 31.4862
lfoot -9.35898 -16.8483
ltoes 2.00226
3997
root -3.36249 19.7582 -29.1547 3.40715 -35.4595 4.2292
lowerback 0.232056 -2.69213 8.23995
upperback 3.14282 -3.66885 -9.57599
thorax 2.0516 -1.61709 -15.2919
lowerneck -8.67244 21.4571 19.1146
upperneck 21.7945 31.8396 -18.0101
head 15.2412 14.0102 -3.45318
rclavicle -1.18873e-013 -8.5875e-014
rhumerus -35.0791 -6.71511 -91.5949
rradius 25.4036
rwrist 6.35886
rhand -14.9543 23.5527
rfingers 7.12502
rthumb 11.2088 -6.12785
lclavicle -1.18873e-013 -8.5875e-014
lhumerus -41.7093 -0.70649 65.0144
lradius 61.3235
lwrist 2.05051
lhand -14.0778 29.0645
lfingers 7.12502
lthumb 12.0541 58.6973
rfemur -42.1524 6.38816 17.3422
rtibia 46.2197
rfoot -17.9282 -3.16445
rtoes -28.1992
lfemur -6.41707 -12.5377 -37.5093
ltibia 31.2441
lfoot -9.15643 -16.994
ltoes 2.26493
